<?xml version="1.0" standalone="no"?>
<!DOCTYPE svg PUBLIC "-//W3C//DTD SVG 20010904//EN"
 "http://www.w3.org/TR/2001/REC-SVG-20010904/DTD/svg10.dtd">
<svg version="1.0" xmlns="http://www.w3.org/2000/svg"
 width="398.000000pt" height="398.000000pt" viewBox="0 0 398.000000 398.000000"
 preserveAspectRatio="xMidYMid meet">
<metadata>
Created by potrace 1.11, written by Peter Selinger 2001-2013
</metadata>
<g transform="translate(0.000000,398.000000) scale(0.100000,-0.100000)"
fill="#000000" stroke="none">
<path d="M1880 3099 c-196 -34 -313 -78 -471 -179 -162 -103 -222 -153 -300
-250 -156 -193 -275 -524 -240 -670 6 -25 14 -93 17 -152 6 -97 5 -108 -10
-108 -50 0 -47 -199 5 -327 21 -53 36 -63 92 -63 15 0 27 -6 27 -13 0 -22 51
-111 76 -134 16 -15 38 -23 59 -23 30 0 36 -4 41 -27 24 -111 49 -183 80 -228
36 -55 227 -220 362 -313 39 -27 69 -52 65 -56 -9 -9 -61 -7 -67 3 -6 10 -143
-17 -273 -53 -48 -13 -110 -27 -138 -31 -52 -7 -128 -36 -138 -52 -7 -12 154
-93 265 -134 391 -144 877 -144 1258 0 100 38 270 122 270 133 0 17 -86 47
-170 58 -47 6 -132 23 -190 37 -58 14 -139 26 -180 28 -41 1 -79 3 -84 4 -5 0
24 24 65 52 111 76 302 233 353 290 49 55 77 118 96 222 11 58 15 67 34 67 47
0 68 14 102 68 20 30 40 65 45 78 5 16 17 24 31 24 13 0 33 3 45 6 45 12 89
176 81 301 -3 54 -8 68 -28 83 -22 17 -23 21 -17 112 3 52 11 117 17 144 31
134 -57 416 -192 611 -122 178 -320 332 -498 387 -93 29 -87 26 -68 37 28 16
9 38 -46 55 -62 19 -296 27 -376 13z m478 -664 c55 -17 169 -89 243 -154 56
-49 72 -95 94 -271 8 -69 18 -142 22 -164 5 -34 4 -38 -13 -33 -10 3 -41 8
-69 12 -41 6 -55 13 -83 46 -19 22 -51 48 -71 58 -117 60 -389 69 -428 15 -19
-26 -16 -58 7 -79 17 -16 26 -16 103 -5 91 14 262 9 292 -7 13 -8 -29 -12
-151 -16 -172 -5 -234 -16 -268 -45 -28 -26 -113 -23 -151 5 -39 28 -140 43
-302 43 -104 1 -124 3 -108 13 26 15 223 21 300 9 70 -11 102 -2 111 32 15 61
-37 86 -181 86 -155 0 -262 -36 -327 -108 -32 -35 -44 -42 -100 -50 -35 -5
-64 -8 -66 -7 -6 5 38 327 49 365 6 19 27 59 46 88 22 32 37 68 40 95 l5 44
72 -1 c39 0 94 6 123 13 47 12 57 11 108 -8 83 -31 191 -28 335 8 135 35 282
41 368 16z m-1328 -451 c5 -27 12 -59 16 -70 4 -17 1 -22 -20 -26 -20 -4 -26
-1 -26 12 0 32 13 140 16 137 2 -2 8 -26 14 -53z m1899 -70 c1 -28 -2 -31 -24
-26 -28 5 -29 9 -15 61 5 20 12 50 16 66 7 28 8 27 15 -20 4 -27 8 -64 8 -81z
m-1289 -141 c-84 -5 -195 -25 -222 -39 -15 -8 -41 -29 -57 -46 l-31 -33 0 36
c0 71 44 88 220 87 74 -1 115 -3 90 -5z m927 -19 c22 -16 29 -31 31 -63 l3
-42 -37 40 c-44 49 -103 69 -238 81 -83 7 -78 8 61 6 137 -1 154 -3 180 -22z
m-802 -87 c28 -58 26 -62 -42 -73 l-41 -6 11 39 c8 32 7 46 -5 71 -15 30 -15
31 6 34 29 5 41 -6 71 -65z m480 40 c-17 -25 -19 -70 -5 -98 13 -23 -3 -25
-62 -8 l-38 10 15 35 c27 65 52 92 80 87 23 -5 24 -7 10 -26z m-733 1 c-15
-15 -16 -72 -2 -99 13 -24 4 -24 -50 -3 -38 15 -60 39 -60 63 0 13 35 32 75
42 45 11 50 10 37 -3z m325 -5 c2 -6 0 -25 -4 -42 l-8 -31 -20 43 -20 43 24
-2 c14 0 27 -6 28 -11z m284 -33 l-16 -39 -6 37 c-8 44 -5 52 20 45 18 -5 18
-7 2 -43z m382 23 c19 -9 27 -20 23 -29 -3 -9 -6 -20 -6 -25 0 -10 -45 -34
-83 -43 -26 -6 -27 -5 -18 13 14 25 14 67 1 91 -10 18 -8 19 22 13 18 -3 46
-12 61 -20z m-863 3 c0 -20 -19 -31 -32 -18 -6 6 -7 15 -4 21 10 16 36 13 36
-3z m728 -3 c-5 -25 -28 -28 -28 -4 0 12 6 21 16 21 9 0 14 -7 12 -17z m-1087
-116 c31 -116 66 -132 289 -132 229 1 277 20 306 125 22 74 38 90 89 90 52 0
71 -19 90 -91 8 -29 25 -63 38 -76 57 -57 384 -72 485 -21 44 21 48 27 69 90
14 45 34 80 58 105 l37 38 -6 -128 c-13 -272 -85 -458 -235 -605 -65 -65 -169
-148 -175 -141 -2 2 -11 53 -20 114 -22 146 -42 180 -125 223 -35 17 -77 32
-93 32 -34 0 -35 6 -5 30 29 24 29 86 -3 209 -22 84 -40 115 -57 98 -3 -3 7
-52 21 -109 35 -139 34 -163 -5 -184 -32 -16 -98 -15 -163 1 -27 8 -29 7 -22
-19 5 -22 3 -26 -16 -26 -32 0 -119 -43 -145 -71 -31 -34 -48 -80 -68 -179
-26 -133 -20 -125 -72 -88 -65 47 -174 155 -211 209 -95 141 -141 293 -149
504 l-5 129 41 -43 c24 -25 45 -59 52 -84z m102 29 c9 -22 115 -57 193 -63 49
-4 96 0 148 12 82 18 97 16 75 -11 -25 -30 -82 -46 -184 -51 -127 -7 -208 9
-247 47 -38 39 -37 74 3 79 4 1 9 -5 12 -13z m1211 -11 c-22 -82 -66 -100
-239 -100 -81 0 -144 5 -166 13 -37 13 -77 48 -66 58 3 3 40 -2 83 -11 121
-27 278 -6 330 44 26 25 66 23 58 -4z m-1434 -350 c0 -9 -9 -15 -25 -15 -31 0
-33 17 -2 23 12 2 23 5 25 6 1 0 2 -6 2 -14z m1660 -6 c0 -5 -11 -9 -25 -9
-17 0 -23 4 -19 14 6 15 44 10 44 -5z m-800 -139 c41 0 141 -28 158 -45 11
-10 -9 -13 -105 -16 -177 -6 -314 3 -304 19 9 15 102 42 143 42 15 0 30 5 33
10 4 7 12 7 25 0 10 -5 33 -10 50 -10z m148 -105 c15 -15 -25 -20 -170 -23
-162 -4 -228 1 -228 18 0 5 19 10 43 12 61 4 350 -1 355 -7z m-420 -49 c34
-75 110 -115 223 -116 58 0 138 24 174 52 15 12 36 40 46 62 l19 41 0 -34 c0
-53 -30 -147 -54 -170 -23 -21 -89 -40 -120 -33 -16 3 -13 7 14 18 24 10 30
18 23 25 -8 8 -17 8 -31 0 -27 -14 -114 -14 -147 1 -34 15 -45 1 -16 -21 30
-23 9 -33 -45 -21 -81 18 -112 67 -113 178 -1 34 1 62 4 62 2 0 13 -20 23 -44z
m107 -462 c72 -20 173 -17 246 6 66 20 79 17 79 -23 0 -23 29 -34 41 -16 5 8
7 22 5 32 -4 15 0 18 17 13 12 -3 28 -6 34 -6 39 0 -61 -140 -120 -169 -66
-32 -185 -46 -269 -32 -86 14 -134 38 -181 90 -45 50 -83 121 -65 121 7 0 23
3 36 6 18 5 22 2 22 -18 0 -13 5 -29 11 -35 16 -16 39 -5 39 17 0 38 10 50 33
38 12 -6 44 -17 72 -24z"/>
</g>
</svg>
